<?xml version="1.0" encoding="utf-8"?>
<!-- Generator: Adobe Illustrator 24.3.0, SVG Export Plug-In . SVG Version: 6.00 Build 0)  -->
<svg version="1.1" id="Ebene_1" xmlns="http://www.w3.org/2000/svg" xmlns:xlink="http://www.w3.org/1999/xlink" x="0px" y="0px"
	 viewBox="0 0 102.05 35.56" style="enable-background:new 0 0 102.05 35.56;" xml:space="preserve">
<style type="text/css">
	.st0{fill:#E2002A;}
</style>
<g>
	<path class="st0" d="M74.27,34.78h15.7c2.2,0,6.06-0.32,8.45-2.31c3.1-2.59,3.63-5.36,3.63-7.11c0-4.02-2.1-6.98-4.15-8.5
		c2.53-2.03,3.29-4.9,3.29-6.93c0-1.39-0.67-8.82-12.55-8.82H74.27L74.27,34.78z M81.43,6.87h8.5c2.48,0,4.44,0.92,4.44,3.83
		c0,2.68-1.77,3.84-4.82,3.84h-8.11V6.87z M81.43,20.32h9.74c1.34,0,4.06,0.18,4.06,3.97c0,4.62-3.25,4.71-5.39,4.71h-8.4V20.32z"/>
	<path class="st0" d="M41.2,34.78h15.7c2.2,0,6.06-0.32,8.45-2.31c3.1-2.59,3.63-5.36,3.63-7.11c0-4.02-2.1-6.98-4.15-8.5
		c2.53-2.03,3.29-4.9,3.29-6.93c0-1.39-0.67-8.82-12.55-8.82H41.2V34.78z M48.36,6.87h8.5c2.48,0,4.44,0.92,4.44,3.83
		c0,2.68-1.77,3.84-4.82,3.84h-8.11V6.87z M48.36,20.32h9.74c1.34,0,4.06,0.18,4.06,3.97c0,4.62-3.25,4.71-5.39,4.71h-8.4V20.32z"/>
	<polygon class="st0" points="25.44,1.12 25.44,1.1 13.08,14.56 21.36,14.56 33.69,1.12 	"/>
	<g>
		<path class="st0" d="M31.36,6.32l-4.78,5.21c1.29,1.81,2,3.97,2,6.25c0,2.89-1.12,5.6-3.16,7.64c-2.04,2.04-4.75,3.17-7.64,3.17
			c-2.89,0-5.6-1.13-7.64-3.17c-2.04-2.04-3.16-4.75-3.16-7.64c0-5.89,4.74-10.7,10.61-10.8l5.62-6.12C21.47,0.31,19.65,0,17.78,0
			C7.98,0,0,7.98,0,17.78C0,22.53,1.85,27,5.21,30.36c3.36,3.36,7.82,5.21,12.58,5.21c4.75,0,9.21-1.85,12.57-5.21
			c3.36-3.36,5.21-7.82,5.21-12.57C35.56,13.54,34.07,9.53,31.36,6.32"/>
	</g>
</g>
</svg>
