<?xml version="1.0" standalone="no"?>
<!DOCTYPE svg PUBLIC "-//W3C//DTD SVG 20010904//EN"
 "http://www.w3.org/TR/2001/REC-SVG-20010904/DTD/svg10.dtd">
<svg version="1.0" xmlns="http://www.w3.org/2000/svg"
 width="500.000000pt" height="500.000000pt" viewBox="0 0 500.000000 500.000000"
 preserveAspectRatio="xMidYMid meet">
<metadata>
Created by potrace 1.14, written by Peter Selinger 2001-2017
</metadata>
<g transform="translate(0.000000,500.000000) scale(0.100000,-0.100000)"
fill="#000000" stroke="none">
<path d="M2787 4614 c-1 -1 -38 -5 -82 -9 -44 -3 -116 -13 -160 -22 -44 -8
-89 -17 -100 -19 -76 -14 -314 -105 -396 -152 -214 -121 -421 -291 -547 -450
-73 -93 -64 -184 21 -233 l42 -24 1150 -1 c633 0 1165 -4 1184 -8 109 -26 188
-111 209 -229 14 -71 9 -314 -6 -329 -10 -10 -90 -13 -360 -14 -388 -2 -416
-4 -507 -42 -87 -36 -167 -111 -209 -198 -95 -193 -22 -427 165 -532 99 -56
136 -61 497 -62 180 0 342 -3 361 -5 60 -8 64 -18 66 -182 3 -231 -24 -316
-120 -377 -89 -56 -59 -54 -1216 -55 -953 -1 -1071 -3 -1113 -17 -26 -9 -50
-22 -52 -29 -3 -7 6 -31 20 -53 28 -45 1227 -1252 1243 -1252 12 0 980 965
1204 1201 158 166 240 260 274 314 11 17 22 32 25 35 12 11 60 90 60 99 0 5 4
11 8 13 13 5 98 186 130 279 86 245 109 528 68 819 -29 201 -108 446 -197 608
-210 382 -613 711 -1034 845 -118 38 -179 51 -321 73 -41 6 -301 13 -307 8z
m842 -544 c45 -24 44 -97 -2 -117 -14 -6 -364 -9 -928 -9 -877 1 -908 2 -928
20 -27 24 -27 71 -1 94 11 9 42 19 68 22 26 3 435 4 908 3 634 -1 867 -4 883
-13z m-259 -1270 c45 -24 65 -114 34 -158 -33 -48 -106 -61 -156 -28 -29 19
-38 35 -45 83 -12 85 86 146 167 103z"/>
<path d="M930 3382 c-83 -10 -129 -47 -137 -110 -4 -31 -1 -47 16 -71 45 -63
-11 -59 1036 -60 560 0 968 4 987 10 43 12 68 38 77 82 11 48 -15 106 -60 132
-33 19 -57 19 -964 20 -511 0 -941 -1 -955 -3z"/>
<path d="M189 2745 c-43 -15 -79 -59 -79 -97 0 -46 28 -95 62 -109 25 -10 273
-13 1197 -13 1278 1 1205 -3 1245 58 34 53 15 112 -48 152 -28 18 -80 18
-1188 19 -782 0 -1168 -3 -1189 -10z"/>
<path d="M893 2159 c-65 -13 -103 -57 -103 -119 0 -44 65 -106 116 -111 22 -2
460 -4 974 -3 846 0 938 2 966 17 41 21 64 58 66 105 2 48 -14 77 -55 99 -29
16 -106 17 -984 18 -523 0 -964 -2 -980 -6z"/>
</g>
</svg>
