<?xml version="1.0" encoding="UTF-8" standalone="no"?>
<!-- Created with Inkscape (http://www.inkscape.org/) -->

<svg
   version="1.1"
   id="svg2"
   xml:space="preserve"
   width="1806.4532"
   height="633.59998"
   viewBox="0 0 1806.4532 633.59998"
   sodipodi:docname="JUHUU Bike box logo.ai"
   xmlns:inkscape="http://www.inkscape.org/namespaces/inkscape"
   xmlns:sodipodi="http://sodipodi.sourceforge.net/DTD/sodipodi-0.dtd"
   xmlns="http://www.w3.org/2000/svg"
   xmlns:svg="http://www.w3.org/2000/svg"><defs
     id="defs6"><clipPath
       clipPathUnits="userSpaceOnUse"
       id="clipPath16"><path
         d="M 0,475.2 H 1354.844 V 0 H 0 Z"
         id="path14" /></clipPath></defs><sodipodi:namedview
     id="namedview4"
     pagecolor="#ffffff"
     bordercolor="#666666"
     borderopacity="1.0"
     inkscape:pageshadow="2"
     inkscape:pageopacity="0.0"
     inkscape:pagecheckerboard="0" /><g
     id="g8"
     inkscape:groupmode="layer"
     inkscape:label="JUHUU Bike box logo"
     transform="matrix(1.3333333,0,0,-1.3333333,0,633.6)"><g
       id="g10"><g
         id="g12"
         clip-path="url(#clipPath16)"><g
           id="g18"
           transform="translate(243.2938,242.0637)"><path
             d="m 0,0 c -4.43,-0.07 -7.65,2.95 -7.74,7.26 -0.09,4.59 3.14,7.93 7.62,7.88 C 4.27,15.1 7.28,12.03 7.29,7.59 7.3,3.02 4.47,0.07 0,0 m 22.52,93.23 c -0.86,-0.86 -2.04,-1.39 -3.34,-1.39 h -120.94 c -2.6,0 -4.73,2.13 -4.73,4.74 0,1.3 0.53,2.49 1.39,3.35 0.86,0.86 2.04,1.39 3.34,1.39 H 19.18 c 2.6,0 4.73,-2.14 4.73,-4.74 0,-1.31 -0.53,-2.49 -1.39,-3.35 M 89.43,40.21 c -6.82,33.89 -25.74,60.24 -54.97,78.87 -26.67,17.01 -55.97,21.87 -86.73,16.33 -28.37,-5.12 -51.63,-19.75 -70.38,-41.6 -3.11,-3.63 -5.36,-7.4 -3.13,-12.21 2.26,-4.86 6.5,-6.07 11.57,-6.05 25.67,0.1 51.33,0.04 77,0.04 24,0 48,0.07 72,-0.03 11.72,-0.05 19.36,-7.64 19.71,-19.33 0.16,-5.17 -0.12,-10.34 0.13,-15.5 0.17,-3.71 -1.17,-4.9 -4.88,-4.85 -14,0.18 -28,0.1 -42,0.07 C -9.3,35.92 -22.38,23.76 -22.43,7.94 c -0.05,-16.36 12.76,-28.59 30,-28.61 12.17,-0.02 24.34,0 36.5,0 10.51,0 10.56,0 10.49,-10.57 -0.04,-5.49 0.36,-11.1 -0.58,-16.45 -1.68,-9.54 -10.16,-15.15 -21.81,-15.16 -46.83,-0.04 -93.66,0.03 -140.49,-0.14 -2.62,-0.01 -5.23,-1.8 -7.84,-2.76 1.29,-2.29 2.16,-4.99 3.94,-6.8 16.6,-16.84 33.37,-33.51 50.07,-50.25 10.69,-10.71 21.35,-21.44 32.21,-32.35 1.08,0.74 1.54,0.97 1.88,1.31 29.37,29.49 59.41,58.36 87.9,88.69 27.79,29.58 37.6,65.56 29.59,105.36"
             style="fill:#6e17fb;fill-opacity:1;fill-rule:nonzero;stroke:none"
             id="path20" /></g><g
           id="g22"
           transform="translate(740.5519,236.2759)"><path
             d="m 0,0 c -0.001,21.663 0.101,43.328 -0.085,64.99 -0.038,4.407 1.008,6.294 5.795,6.068 7.649,-0.362 15.333,-0.279 22.99,-0.033 4.151,0.134 5.528,-1.385 5.48,-5.48 -0.173,-14.996 0.078,-29.997 -0.176,-44.991 -0.083,-4.848 1.163,-6.673 6.39,-6.632 29.827,0.235 59.658,0.198 89.486,0.029 4.827,-0.028 6.692,1.095 6.559,6.392 -0.381,15.155 -0.013,30.328 -0.216,45.489 -0.053,3.937 1.138,5.302 5.096,5.191 8.326,-0.234 16.664,-0.167 24.994,-0.026 3.204,0.054 4.322,-1.019 4.315,-4.324 -0.091,-44.826 -0.092,-89.654 -0.003,-134.48 0.006,-3.295 -1.13,-4.426 -4.319,-4.383 -8.497,0.114 -16.999,0.137 -25.495,-0.013 -3.509,-0.061 -4.592,1.337 -4.563,4.75 0.13,15.496 -0.068,30.996 0.137,46.491 0.054,4.097 -1.118,5.414 -5.323,5.393 -30.495,-0.157 -60.991,-0.142 -91.486,0.012 -4.023,0.02 -5.596,-0.999 -5.533,-5.241 0.231,-15.494 0.016,-30.995 0.296,-46.487 0.069,-3.824 -1.091,-5.002 -4.758,-4.925 -8.162,0.172 -16.333,0.19 -24.494,-0.005 -3.896,-0.093 -5.188,1.29 -5.161,5.225 C 0.08,-44.661 0.001,-22.33 0,0"
             style="fill:#6e17fb;fill-opacity:1;fill-rule:nonzero;stroke:none"
             id="path24" /></g><g
           id="g26"
           transform="translate(1289.1265,241.0122)"><path
             d="m 0,0 c 0.004,-19.993 0.018,-39.987 -0.001,-59.98 -0.01,-10.314 -5.807,-16.756 -16.204,-16.804 -27.32,-0.125 -54.747,-1.287 -81.933,0.691 -26.693,1.942 -49.814,12.959 -64.313,37.29 -4.94,8.289 -7.829,17.377 -7.94,26.996 -0.282,24.489 -0.112,48.983 -0.255,73.474 -0.02,3.5 1.261,4.681 4.676,4.614 8.16,-0.161 16.331,-0.227 24.488,0.009 3.898,0.113 4.742,-1.508 4.721,-5.034 -0.123,-20.326 -0.39,-40.661 0.104,-60.975 0.187,-7.674 0.903,-15.865 3.769,-22.838 6.692,-16.283 21.438,-22.735 37.523,-24.113 18.859,-1.617 37.918,-0.852 56.888,-1.239 4.444,-0.091 4.085,2.763 4.083,5.673 -0.015,32.989 -0.063,65.979 0.019,98.968 0.026,10.626 -1.751,9.417 9.571,9.497 6.498,0.045 13.005,-0.207 19.491,0.073 4.089,0.176 5.445,-1.09 5.402,-5.323 C -0.118,40.655 -0.004,20.327 0,0"
             style="fill:#6e17fb;fill-opacity:1;fill-rule:nonzero;stroke:none"
             id="path28" /></g><g
           id="g30"
           transform="translate(1100.012,240.2615)"><path
             d="m 0,0 c 0.001,-19.822 0.018,-39.644 -0.007,-59.466 -0.013,-10.383 -5.756,-16.566 -16.245,-16.595 -26.98,-0.075 -54.078,-1.349 -80.912,0.693 -29.805,2.269 -55.096,14.633 -67.969,43.936 -3.249,7.393 -4.862,16.01 -5.098,24.127 -0.669,22.967 -0.143,45.968 -0.318,68.953 -0.032,4.153 1.24,5.541 5.379,5.397 7.653,-0.267 15.331,-0.286 22.981,0.014 4.361,0.171 5.774,-1.246 5.732,-5.664 -0.197,-20.82 0.343,-41.654 -0.195,-62.461 -0.727,-28.113 17.113,-42.314 41.605,-44.851 18.797,-1.947 37.902,-0.866 56.867,-1.25 4.024,-0.081 3.995,2.281 3.991,5.189 -0.049,34.147 -0.035,68.295 -0.035,102.442 0,6.483 0.005,6.497 6.579,6.509 7.163,0.014 14.338,-0.261 21.484,0.087 4.722,0.23 6.333,-1.162 6.27,-6.096 C -0.153,40.646 -0.001,20.322 0,0"
             style="fill:#6e17fb;fill-opacity:1;fill-rule:nonzero;stroke:none"
             id="path32" /></g><g
           id="g34"
           transform="translate(548.1144,307.1679)"><path
             d="m 0,0 c 10.616,0 21.059,0.122 31.487,-0.213 0.917,-0.029 2.477,-3.051 2.491,-4.692 0.169,-20.828 0.705,-41.678 -0.033,-62.481 -1.087,-30.644 19.507,-43.432 41.961,-45.5 18.677,-1.72 37.594,-0.795 56.401,-1.178 4.33,-0.088 4.25,2.541 4.247,5.57 -0.027,33.992 -0.018,67.985 -0.012,101.977 0.001,6.562 0.014,6.573 6.528,6.583 7.498,0.011 14.999,-0.105 22.494,0.046 3.332,0.066 4.759,-0.951 4.751,-4.532 -0.091,-41.491 -0.019,-82.982 -0.112,-124.472 -0.017,-7.466 -5.85,-13.404 -13.618,-13.922 -5.974,-0.399 -11.989,-0.251 -17.986,-0.227 -21.659,0.087 -43.385,-0.802 -64.958,0.622 -23.268,1.537 -43.939,10.35 -59.476,28.731 -9.764,11.551 -14.066,25.363 -14.386,40.125 -0.507,23.483 -0.131,46.986 -0.114,70.481 C -0.334,-2.286 -0.167,-1.49 0,0"
             style="fill:#6e17fb;fill-opacity:1;fill-rule:nonzero;stroke:none"
             id="path36" /></g><g
           id="g38"
           transform="translate(436.2242,164.1194)"><path
             d="m 0,0 c -18.833,0 -37.669,0.172 -56.498,-0.112 -5.181,-0.078 -6.716,1.665 -6.392,6.613 0.371,5.642 0.333,11.343 -10e-4,16.99 -0.265,4.471 1.393,5.618 5.731,5.598 34.166,-0.162 68.332,-0.088 102.499,-0.084 1.666,0 3.34,-0.074 4.998,0.047 6.69,0.49 9.148,3.094 9.151,9.8 0.015,32.666 0.129,65.333 -0.134,97.998 -0.042,5.206 1.501,6.596 6.455,6.365 7.816,-0.363 15.664,-0.19 23.494,-0.03 3.357,0.069 4.7,-0.953 4.689,-4.546 C 93.88,104.14 94.08,69.639 93.844,35.141 93.743,20.321 81.932,6.453 66.209,2.282 60.972,0.893 55.412,0.724 49.999,0.007 49.671,-0.037 49.333,0 49,0 32.666,0 16.333,0 0,0"
             style="fill:#6e17fb;fill-opacity:1;fill-rule:nonzero;stroke:none"
             id="path40" /></g><g
           id="g42"
           transform="translate(111.1366,237.4561)"><path
             d="m 0,0 c -25.634,0.003 -51.268,0.034 -76.902,-0.029 -4.164,-0.011 -7.244,1.551 -8.461,5.519 -1.155,3.767 0.319,6.97 3.719,8.916 1.347,0.771 3.141,1.06 4.732,1.062 51.101,0.053 102.203,0.052 153.304,0.032 5.056,-0.002 9.481,-3.563 9.573,-7.512 C 86.066,3.638 81.821,0.016 76.402,0.01 50.935,-0.019 25.467,-0.003 0,0"
             style="fill:#6e17fb;fill-opacity:1;fill-rule:nonzero;stroke:none"
             id="path44" /></g><g
           id="g46"
           transform="translate(144.4553,212.8011)"><path
             d="m 0,0 c 20.494,-0.002 40.987,0.003 61.481,-0.005 6.931,-0.003 10.296,-2.655 10.219,-8.002 -0.071,-4.893 -4.292,-8.256 -10.473,-8.258 -40.987,-0.012 -81.974,-0.01 -122.961,-0.012 -0.667,0 -1.336,-0.033 -1.999,0.009 -5.094,0.321 -9.271,4.34 -9.113,8.752 0.161,4.475 3.813,7.493 9.366,7.503 C -42.32,0.025 -21.16,0.002 0,0"
             style="fill:#6e17fb;fill-opacity:1;fill-rule:nonzero;stroke:none"
             id="path48" /></g><g
           id="g50"
           transform="translate(143.7746,279.3277)"><path
             d="m 0,0 c -19.653,-0.003 -39.306,-0.006 -58.96,0.002 -1.831,0.001 -3.697,-0.135 -5.485,0.164 -4.157,0.697 -7.135,3.114 -7.592,7.367 -0.479,4.456 2.481,7.047 6.361,8.364 1.83,0.621 3.923,0.642 5.897,0.643 39.973,0.023 79.946,0.003 119.918,-0.009 1,0 2.002,0.042 2.998,-0.017 C 68.6,16.19 72.431,12.662 72.376,8.033 72.318,3.033 69.02,0.082 62.957,0.053 45.136,-0.032 27.315,0.01 9.494,0.003 6.329,0.002 3.165,0.003 0,0"
             style="fill:#6e17fb;fill-opacity:1;fill-rule:nonzero;stroke:none"
             id="path52" /></g></g></g></g></svg>
